<?xml version="1.0" encoding="UTF-8"?>
<svg id="Warstwa_2" data-name="Warstwa 2" xmlns="http://www.w3.org/2000/svg" viewBox="0 0 17.04 15.34">
  <defs>
    <style>
      .cls-1 {
        fill-rule: evenodd;
      }

      .cls-1, .cls-2 {
        fill: #f7f7f7;
      }
    </style>
  </defs>
  <g id="Warstwa_1-2" data-name="Warstwa 1">
    <g>
      <path class="cls-2" d="M2.66,0c.74,0,1.4.3,1.88.78.48.48.78,1.15.78,1.88s-.3,1.4-.78,1.88c-.48.48-1.15.78-1.88.78s-1.4-.3-1.88-.78c-.48-.48-.78-1.15-.78-1.88S.3,1.26.78.78c.48-.48,1.15-.78,1.88-.78h0ZM3.44,1.89c-.2-.2-.47-.32-.78-.32s-.58.12-.78.32c-.2.2-.32.47-.32.78s.12.58.32.78c.2.2.47.32.78.32s.58-.12.78-.32c.2-.2.32-.47.32-.78s-.12-.58-.32-.78h0Z"/>
      <path class="cls-2" d="M8.46,0c.74,0,1.4.3,1.88.78.48.48.78,1.15.78,1.88s-.3,1.4-.78,1.88c-.48.48-1.15.78-1.88.78s-1.4-.3-1.88-.78c-.48-.48-.78-1.15-.78-1.88s.3-1.4.78-1.88c.48-.48,1.15-.78,1.88-.78h0ZM9.24,1.89c-.2-.2-.47-.32-.78-.32s-.58.12-.78.32c-.2.2-.32.47-.32.78s.12.58.32.78c.2.2.47.32.78.32s.58-.12.78-.32c.2-.2.32-.47.32-.78s-.12-.58-.32-.78h0Z"/>
      <path class="cls-2" d="M14.34,0c.74,0,1.4.3,1.88.78.48.48.78,1.15.78,1.88s-.3,1.4-.78,1.88c-.48.48-1.15.78-1.88.78s-1.4-.3-1.88-.78c-.48-.48-.78-1.15-.78-1.88s.3-1.4.78-1.88c.48-.48,1.15-.78,1.88-.78h0ZM15.12,1.89c-.2-.2-.47-.32-.78-.32s-.58.12-.78.32c-.2.2-.32.47-.32.78s.12.58.32.78c.2.2.47.32.78.32s.58-.12.78-.32c.2-.2.32-.47.32-.78s-.12-.58-.32-.78h0Z"/>
      <path class="cls-2" d="M2.66,10.01h11.71c.73,0,1.4.3,1.88.78.48.48.78,1.15.78,1.88h0c0,.73-.3,1.4-.78,1.88s-1.15.78-1.88.78H2.66c-.73,0-1.4-.3-1.88-.78s-.78-1.15-.78-1.88h0c0-.73.3-1.4.78-1.88.48-.48,1.15-.78,1.88-.78h0ZM14.37,11.6H2.66c-.3,0-.57.12-.76.32-.2.2-.32.47-.32.76h0c0,.3.12.57.32.76.2.2.47.32.76.32h11.71c.3,0,.57-.12.76-.32.2-.2.32-.47.32-.76h0c0-.3-.12-.57-.32-.76-.2-.2-.47-.32-.76-.32h0Z"/>
      <path class="cls-1" d="M8.73,11v-2.07c.52-.07.96-.33.99-.34.1-.06.15-.18.13-.29-.28-1.19-1.17-1.91-1.21-1.94-.19-.13-.34,0-.34,0-.15.13-.93.83-1.2,1.95-.03.12.02.24.13.3.02.01.46.25.98.32v2.07h0c.01.14.13.24.27.24s.26-.11.27-.24h0Z"/>
    </g>
  </g>
</svg>