<?xml version="1.0" encoding="UTF-8"?>
<svg id="Warstwa_2" data-name="Warstwa 2" xmlns="http://www.w3.org/2000/svg" viewBox="0 0 16.02 16.72">
  <defs>
    <style>
      .cls-1 {
        fill: #f7f7f7;
        fill-rule: evenodd;
      }
    </style>
  </defs>
  <g id="Warstwa_1-2" data-name="Warstwa 1">
    <path class="cls-1" d="M9.06,15.67c0,.58-.47,1.05-1.04,1.05s-1.04-.47-1.04-1.05.47-1.04,1.04-1.04,1.04.47,1.04,1.04h0ZM11.49,14.63c-.58,0-1.04.47-1.04,1.04s.47,1.05,1.04,1.05,1.05-.47,1.05-1.05-.47-1.04-1.05-1.04h0ZM14.98,14.63c-.58,0-1.04.47-1.04,1.04s.47,1.05,1.04,1.05,1.04-.47,1.04-1.05-.47-1.04-1.04-1.04h0ZM4.53,14.63c-.58,0-1.05.47-1.05,1.04s.47,1.05,1.05,1.05,1.04-.47,1.04-1.05-.47-1.04-1.04-1.04h0ZM1.04,14.63c-.58,0-1.04.47-1.04,1.04s.47,1.05,1.04,1.05,1.04-.47,1.04-1.05-.47-1.04-1.04-1.04h0ZM11.47,7.96l-2.41,2.32V1.04c0-.58-.47-1.04-1.04-1.04s-1.04.47-1.04,1.04v9.23l-2.41-2.32c-.42-.4-1.08-.39-1.48.03-.4.42-.39,1.08.03,1.48l3.18,3.06c.46.46,1.07.72,1.73.72s1.26-.25,1.71-.7l3.2-3.07c.42-.4.43-1.06.03-1.48-.4-.42-1.07-.43-1.48-.03h0Z"/>
  </g>
</svg>