<?xml version="1.0" encoding="UTF-8"?>
<svg id="Warstwa_2" data-name="Warstwa 2" xmlns="http://www.w3.org/2000/svg" viewBox="0 0 17.58 20.05">
  <defs>
    <style>
      .cls-1 {
        fill: #f7f7f7;
        fill-rule: evenodd;
      }
    </style>
  </defs>
  <g id="Warstwa_1-2" data-name="Warstwa 1">
    <path class="cls-1" d="M2.55,13.82c0-.42.03-.66.22-1,.11-.19,1.31-1.71,1.43-1.78,0,.85,0,1.7,0,2.55,0,.51.04.72.28,1.01.61.73,1.83.56,2.17-.43.13-.38.05-1.41.05-1.91v-7.87c0-.66-.09-1.36.29-1.67.47-.38,1.06-.2,1.29.28.15.31.06,1.44.06,1.9v1.96c0,.65-.07,1.37.19,1.77.32.51.62.56,1.3.7,1.09.22,2.2.44,3.3.66.65.13.92.24,1.32.64.31.31.6.8.6,1.4v3.49c0,1.13-.95,2.04-2.23,2.04h-6.23c-.62,0-1.11-.17-1.46-.46l-.71-.7s-.01-.02-.02-.02c-.68-.81-1.84-1.48-1.84-2.54h0ZM7.31,0h.49c.41.03.81.14,1.19.33.21.11.33.18.51.31.78.52,1.38,1.64,1.38,2.62v3.72l1.29.24c1.36.27,2.88.46,3.85,1.44.07.08.13.12.2.19.92.92,1.35,2.08,1.35,3.5v2.86c0,1.29-.4,2.54-1.26,3.4-.11.11-.19.19-.29.29-.11.11-.21.18-.32.26-.66.49-1.63.9-2.55.9h-7.01c-1.14,0-2.03-.56-2.78-1.14l-1.76-1.77c-.07-.08-.11-.12-.19-.2-.87-.86-1.42-1.84-1.42-3.24s.58-2.3,1.4-3.26l2.65-3.22c.17-.21.15-.17.14-.52v-2c0-.79-.07-1.73.17-2.45C4.79.95,6.01.09,7.31,0h0Z"/>
  </g>
</svg>