<?xml version="1.0" encoding="UTF-8"?>
<svg id="Warstwa_2" data-name="Warstwa 2" xmlns="http://www.w3.org/2000/svg" viewBox="0 0 15.66 14.36">
  <defs>
    <style>
      .cls-1 {
        fill: #f7f7f7;
        fill-rule: evenodd;
      }
    </style>
  </defs>
  <g id="Warstwa_1-2" data-name="Warstwa 1">
    <path class="cls-1" d="M12.07,0H3.59C1.61,0,0,1.61,0,3.59v3.92c0,1.98,1.61,3.59,3.59,3.59h3.26v1.31h-1.63c-.54,0-.98.44-.98.98s.44.98.98.98h5.22c.54,0,.98-.44.98-.98s-.44-.98-.98-.98h-1.63v-1.31h3.26c1.98,0,3.59-1.61,3.59-3.59v-3.92c0-1.98-1.61-3.59-3.59-3.59h0ZM13.71,7.51c0,.9-.73,1.63-1.63,1.63H3.59c-.9,0-1.63-.73-1.63-1.63v-3.92c0-.9.73-1.63,1.63-1.63h8.48c.9,0,1.63.73,1.63,1.63v3.92h0Z"/>
  </g>
</svg>