<?xml version="1.0" encoding="UTF-8"?>
<svg id="Warstwa_2" data-name="Warstwa 2" xmlns="http://www.w3.org/2000/svg" viewBox="0 0 20.43 20.43">
  <defs>
    <style>
      .cls-1 {
        fill: #f7f7f7;
        fill-rule: evenodd;
        stroke: #fff;
        stroke-miterlimit: 22.93;
        stroke-width: .57px;
      }
    </style>
  </defs>
  <g id="Warstwa_1-2" data-name="Warstwa 1">
    <path class="cls-1" d="M3.85,12.55l-1.57-1.63h6.24c.39,0,.71-.32.71-.71s-.32-.71-.71-.71H2.29l1.57-1.63c.27-.28.26-.73-.02-1-.28-.27-.73-.26-1,.02l-2.07,2.15c-.31.31-.49.73-.49,1.17s.17.85.48,1.15l2.08,2.16c.27.28.72.29,1,.02.28-.27.29-.72.02-1h0ZM12.55,16.58l-1.63,1.57v-6.24c0-.39-.32-.71-.71-.71s-.71.32-.71.71v6.24l-1.63-1.57c-.28-.27-.73-.26-1,.02-.27.28-.26.73.02,1l2.15,2.07c.31.31.73.49,1.17.49s.85-.17,1.15-.48l2.16-2.08c.28-.27.29-.72.02-1-.27-.28-.72-.29-1-.02h0ZM16.58,12.55l1.57-1.63h-6.24c-.39,0-.71-.32-.71-.71s.32-.71.71-.71h6.24l-1.57-1.63c-.27-.28-.26-.73.02-1,.28-.27.73-.26,1,.02l2.07,2.15c.31.31.49.73.49,1.17s-.17.85-.48,1.15l-2.08,2.16c-.27.28-.72.29-1,.02-.28-.27-.29-.72-.02-1h0ZM12.55,3.85l-1.63-1.57v6.24c0,.39-.32.71-.71.71s-.71-.32-.71-.71V2.29l-1.63,1.57c-.28.27-.73.26-1-.02-.27-.28-.26-.73.02-1l2.15-2.07c.31-.31.73-.49,1.17-.49s.85.17,1.15.48l2.16,2.08c.28.27.29.72.02,1-.27.28-.72.29-1,.02h0Z"/>
  </g>
</svg>