<?xml version="1.0" encoding="UTF-8"?>
<svg id="Warstwa_2" data-name="Warstwa 2" xmlns="http://www.w3.org/2000/svg" viewBox="0 0 18.04 4.94">
  <defs>
    <style>
      .cls-1 {
        fill: #f7f7f7;
      }
    </style>
  </defs>
  <g id="Warstwa_1-2" data-name="Warstwa 1">
    <path class="cls-1" d="M2.47,0c.68,0,1.3.28,1.75.72.29.29.5.65.62,1.05h1.67c.12-.4.34-.76.62-1.04h0c.45-.45,1.07-.73,1.75-.73s1.3.28,1.75.72c.29.29.5.65.62,1.05h1.95c.12-.4.34-.76.62-1.04h0c.45-.45,1.07-.73,1.75-.73s1.3.28,1.75.72c.45.45.72,1.07.72,1.75s-.28,1.3-.73,1.75h0c-.45.45-1.07.73-1.75.73s-1.3-.28-1.75-.72c-.29-.29-.5-.65-.62-1.05h-1.95c-.12.4-.34.76-.62,1.05h0c-.45.45-1.07.73-1.75.73s-1.3-.28-1.75-.72c-.29-.29-.5-.65-.62-1.05h-1.67c-.12.4-.34.76-.62,1.05h0c-.45.45-1.07.73-1.75.73s-1.3-.28-1.75-.72c-.45-.45-.72-1.07-.72-1.75S.28,1.17.72.73h0c.45-.45,1.07-.73,1.75-.73h0ZM16.32,1.73c-.19-.19-.45-.31-.75-.31s-.56.12-.75.31h0c-.19.19-.31.45-.31.75s.12.56.31.75.45.31.75.31.56-.12.75-.31h0c.19-.19.31-.45.31-.75s-.12-.56-.31-.75h0ZM9.63,1.73c-.19-.19-.45-.31-.75-.31s-.56.12-.75.31h0c-.19.19-.31.45-.31.75s.12.56.31.75c.19.19.45.31.75.31s.56-.12.75-.31h0c.19-.19.31-.45.31-.75s-.12-.56-.31-.75h0ZM3.22,1.73c-.19-.19-.45-.31-.75-.31s-.56.12-.75.31h0c-.19.19-.31.45-.31.75s.12.56.31.75c.19.19.45.31.75.31s.56-.12.75-.31h0c.19-.19.31-.45.31-.75s-.12-.56-.31-.75h0Z"/>
  </g>
</svg>