<?xml version="1.0" encoding="UTF-8"?>
<svg id="Warstwa_2" data-name="Warstwa 2" xmlns="http://www.w3.org/2000/svg" viewBox="0 0 18.24 18.32">
  <defs>
    <style>
      .cls-1 {
        fill-rule: evenodd;
      }

      .cls-1, .cls-2 {
        fill: #f7f7f7;
      }
    </style>
  </defs>
  <g id="Warstwa_1-2" data-name="Warstwa 1">
    <g>
      <path class="cls-1" d="M17.09,9.15c-.58,0-1.06.44-1.14,1.01-.55,3.76-4.05,6.37-7.81,5.81-3.76-.55-6.36-4.05-5.81-7.81.55-3.76,4.05-6.37,7.81-5.81,1.28.19,2.49.73,3.47,1.57l-.86.86c-.3.3-.3.78,0,1.08.14.14.34.22.54.22h3.5c.42,0,.76-.34.76-.76V1.83c0-.42-.34-.76-.76-.76-.2,0-.4.08-.54.22l-1.02,1.02C11.45-1.05,5.66-.7,2.3,3.09c-3.36,3.79-3,9.58.78,12.93,3.79,3.36,9.58,3.01,12.93-.78,1.18-1.33,1.95-2.98,2.21-4.74.1-.63-.33-1.22-.96-1.33-.06,0-.12-.01-.17-.01h0Z"/>
      <path class="cls-2" d="M7.69,7.47v1.34h-1.18v-1.34h1.18ZM7.69,9.83v1.02h-1.18v-.64h-1.16v.21c0,.22.03.43.09.61.06.19.16.35.29.48.13.13.3.24.5.31.2.07.45.11.73.11h.27c.56,0,.97-.15,1.23-.45.26-.3.39-.71.39-1.23v-2.28c0-.53-.13-.92-.38-1.19-.26-.27-.67-.4-1.24-.4h-.27c-.28,0-.53.04-.73.11-.2.07-.37.18-.5.31-.13.13-.23.29-.29.48-.06.19-.09.39-.09.61v.47c0,.22.02.43.07.61.05.19.12.35.24.48.11.13.26.24.45.31.19.08.42.11.71.11h.27c.22,0,.43-.02.61-.07h0Z"/>
      <path class="cls-2" d="M9.47,8.06v2.2c0,.52.13.93.38,1.23.26.3.67.45,1.24.45h.19c.56,0,.97-.15,1.23-.45.26-.3.39-.71.39-1.23v-2.2c0-.52-.13-.93-.39-1.23-.26-.3-.67-.45-1.23-.45h-.19c-.57,0-.98.15-1.24.45-.26.3-.38.71-.38,1.23h0ZM11.74,7.47v3.38h-1.11v-3.38h1.11Z"/>
    </g>
  </g>
</svg>