<?xml version="1.0" encoding="UTF-8"?>
<svg id="Warstwa_2" data-name="Warstwa 2" xmlns="http://www.w3.org/2000/svg" viewBox="0 0 18.24 18.32">
  <defs>
    <style>
      .cls-1 {
        fill: #f7f7f7;
        fill-rule: evenodd;
      }
    </style>
  </defs>
  <g id="Warstwa_1-2" data-name="Warstwa 1">
    <path class="cls-1" d="M17.09,9.15c-.58,0-1.06.44-1.14,1.01-.55,3.76-4.05,6.37-7.81,5.81-3.76-.55-6.36-4.05-5.81-7.81.55-3.76,4.05-6.37,7.81-5.81,1.28.19,2.49.73,3.47,1.57l-.86.86c-.3.3-.3.78,0,1.08.14.14.34.22.54.22h3.5c.42,0,.76-.34.76-.76V1.83c0-.42-.34-.76-.76-.76-.2,0-.4.08-.54.22l-1.02,1.02C11.45-1.05,5.66-.7,2.3,3.09c-3.36,3.79-3.01,9.58.78,12.93,3.79,3.36,9.58,3.01,12.93-.78,1.18-1.33,1.95-2.98,2.21-4.74.1-.63-.33-1.22-.96-1.33-.06,0-.12-.01-.17-.01h0Z"/>
  </g>
</svg>