<?xml version="1.0" encoding="UTF-8"?>
<svg id="Warstwa_2" data-name="Warstwa 2" xmlns="http://www.w3.org/2000/svg" viewBox="0 0 18.38 18.38">
  <defs>
    <style>
      .cls-1 {
        fill: #f7f7f7;
        fill-rule: evenodd;
      }
    </style>
  </defs>
  <g id="Warstwa_1-2" data-name="Warstwa 1">
    <path class="cls-1" d="M5.36,1.15c0,.63-.51,1.15-1.15,1.15-1.06,0-1.92.86-1.92,1.92,0,.63-.51,1.15-1.15,1.15s-1.15-.51-1.15-1.15C0,1.89,1.89,0,4.21,0c.64,0,1.15.51,1.15,1.15h0ZM1.15,11.49c.63,0,1.15-.51,1.15-1.15v-2.3c0-.63-.51-1.15-1.15-1.15s-1.15.51-1.15,1.15v2.3c0,.63.51,1.15,1.15,1.15h0ZM4.21,16.09c-1.06,0-1.92-.86-1.92-1.92,0-.63-.51-1.15-1.15-1.15s-1.15.51-1.15,1.15c0,2.32,1.89,4.21,4.21,4.21.64,0,1.15-.51,1.15-1.15s-.51-1.15-1.15-1.15h0ZM17.24,13.02c-.63,0-1.15.51-1.15,1.15,0,1.06-.86,1.92-1.92,1.92-.64,0-1.15.51-1.15,1.15s.51,1.15,1.15,1.15c2.32,0,4.21-1.89,4.21-4.21,0-.63-.51-1.15-1.15-1.15h0ZM17.24,6.89c-.63,0-1.15.51-1.15,1.15v2.3c0,.63.51,1.15,1.15,1.15s1.15-.51,1.15-1.15v-2.3c0-.63-.51-1.15-1.15-1.15h0ZM14.17,2.3c1.06,0,1.92.86,1.92,1.92,0,.63.51,1.15,1.15,1.15s1.15-.51,1.15-1.15c0-2.32-1.89-4.21-4.21-4.21-.64,0-1.15.51-1.15,1.15s.51,1.15,1.15,1.15h0ZM10.34,0h-2.3c-.63,0-1.15.51-1.15,1.15s.51,1.15,1.15,1.15h2.3c.63,0,1.15-.51,1.15-1.15s-.51-1.15-1.15-1.15h0ZM10.34,16.09h-2.3c-.63,0-1.15.51-1.15,1.15s.51,1.15,1.15,1.15h2.3c.63,0,1.15-.51,1.15-1.15s-.51-1.15-1.15-1.15h0Z"/>
  </g>
</svg>