<?xml version="1.0" encoding="UTF-8"?>
<svg id="Warstwa_2" data-name="Warstwa 2" xmlns="http://www.w3.org/2000/svg" viewBox="0 0 14.29 15.59">
  <defs>
    <style>
      .cls-1 {
        fill: #f7f7f7;
        fill-rule: evenodd;
      }
    </style>
  </defs>
  <g id="Warstwa_1-2" data-name="Warstwa 1">
    <g>
      <path class="cls-1" d="M14.29,2.92c0-.54-.44-.97-.97-.97h-2.45c-.41-1.16-1.51-1.94-2.74-1.95h-1.95c-1.23,0-2.33.78-2.74,1.95H.97c-.54,0-.97.44-.97.97h0c0,.54.44.97.97.97h.32v8.12c0,1.97,1.6,3.57,3.57,3.57h4.55c1.97,0,3.57-1.6,3.57-3.57V3.9h.32c.54,0,.97-.44.97-.97h0ZM11.04,12.02c0,.9-.73,1.62-1.62,1.62h-4.55c-.9,0-1.62-.73-1.62-1.62V3.9h7.79v8.12h0Z"/>
      <path class="cls-1" d="M5.52,11.69c.54,0,.97-.44.97-.97v-3.9c0-.54-.44-.97-.97-.97s-.97.44-.97.97v3.9c0,.54.44.97.97.97h0Z"/>
      <path class="cls-1" d="M8.77,11.69c.54,0,.97-.44.97-.97v-3.9c0-.54-.44-.97-.97-.97s-.97.44-.97.97v3.9c0,.54.44.97.97.97h0Z"/>
    </g>
  </g>
</svg>