<?xml version="1.0" encoding="UTF-8" standalone="no"?>
<svg
   id="Warstwa_2"
   viewBox="0 0 26.85 26.85"
   version="1.1"
   sodipodi:docname="202-6_1.svg"
   inkscape:version="1.2.2 (732a01da63, 2022-12-09)"
   xmlns:inkscape="http://www.inkscape.org/namespaces/inkscape"
   xmlns:sodipodi="http://sodipodi.sourceforge.net/DTD/sodipodi-0.dtd"
   xmlns="http://www.w3.org/2000/svg"
   xmlns:svg="http://www.w3.org/2000/svg">
  <sodipodi:namedview
     id="namedview58"
     pagecolor="#ffffff"
     bordercolor="#000000"
     borderopacity="0.25"
     inkscape:showpageshadow="2"
     inkscape:pageopacity="0.0"
     inkscape:pagecheckerboard="0"
     inkscape:deskcolor="#d1d1d1"
     showgrid="false"
     inkscape:zoom="38.249534"
     inkscape:cx="6.3530186"
     inkscape:cy="13.411928"
     inkscape:window-width="3840"
     inkscape:window-height="2054"
     inkscape:window-x="-11"
     inkscape:window-y="-11"
     inkscape:window-maximized="1"
     inkscape:current-layer="Warstwa_2" />
  <defs
     id="defs46">
    <style
       id="style44">.cls-1{fill:#525e7d;}.cls-1,.cls-2{fill-rule:evenodd;}.cls-2{fill:#fff;}</style>
  </defs>
  <path
     class="cls-2"
     d="m 12.49,13.43 c -0.15,-0.1 -0.44,-0.42 -0.59,-0.57 -0.27,-0.27 -1.24,-1.3 -1.49,-1.43 -0.53,-0.29 -1.13,-0.06 -1.39,0.45 -0.38,0.77 0.29,1.25 0.81,1.76 l 2.84,2.84 c 0.33,0.33 0.43,0.4 0.92,0.4 0.49,0 0.94,-0.61 1.3,-0.97 l 2.83,-2.83 c 0.42,-0.41 0.52,-1.02 0.08,-1.48 -0.4,-0.42 -1.04,-0.43 -1.51,0.05 -0.21,0.21 -0.39,0.39 -0.6,0.6 L 14.5,13.42 V 6.16 C 14.5,5.67 14.54,5.44 14.34,5.13 14.16,4.85 13.87,4.71 13.57,4.68 H 13.42 C 13.13,4.7 12.85,4.84 12.67,5.11 12.44,5.44 12.5,5.65 12.5,6.16 v 7.26 0 z"
     id="path50" />
  <path
     class="cls-2"
     d="m 5.45,19.71 c 0,0.65 0.46,1.07 0.91,1.07 h 14.27 c 0.44,0 0.91,-0.48 0.91,-0.91 0,-0.33 -0.03,-0.55 -0.29,-0.81 -0.14,-0.14 -0.38,-0.29 -0.65,-0.29 H 6.39 c -0.49,0 -0.94,0.46 -0.94,0.94 z"
     id="path52" />
</svg>
