<?xml version="1.0" encoding="UTF-8"?>
<svg id="Warstwa_2" data-name="Warstwa 2" xmlns="http://www.w3.org/2000/svg" viewBox="0 0 16.22 16.22">
  <defs>
    <style>
      .cls-1 {
        fill: #f7f7f7;
        fill-rule: evenodd;
      }
    </style>
  </defs>
  <g id="Warstwa_1-2" data-name="Warstwa 1">
    <path class="cls-1" d="M12.5,16.22H3.72c-2.05,0-3.72-1.67-3.72-3.72V3.72C0,1.67,1.67,0,3.72,0h8.79c2.05,0,3.72,1.67,3.72,3.72v8.79c0,2.05-1.67,3.71-3.72,3.72h0ZM4.8,4.14h2.33c.33,0,.6.27.6.6v2.33c0,.33-.27.6-.6.6h-2.33c-.33,0-.6-.27-.6-.6v-2.33c0-.33.27-.6.6-.6h0ZM8.98,8.14h2.33c.33,0,.6.27.6.6v2.33c0,.33-.27.6-.6.6h-2.33c-.33,0-.6-.27-.6-.6v-2.33c0-.33.27-.6.6-.6h0ZM3.72,2.03c-.93,0-1.69.76-1.69,1.69v8.79c0,.93.76,1.69,1.69,1.69h8.79c.93,0,1.69-.76,1.69-1.69V3.72c0-.93-.76-1.69-1.69-1.69H3.72Z"/>
  </g>
</svg>