<?xml version="1.0" encoding="UTF-8"?>
<svg id="Warstwa_2" data-name="Warstwa 2" xmlns="http://www.w3.org/2000/svg" viewBox="0 0 15.98 14.65">
  <defs>
    <style>
      .cls-1 {
        fill: #f7f7f7;
        fill-rule: evenodd;
      }
    </style>
  </defs>
  <g id="Warstwa_1-2" data-name="Warstwa 1">
    <path class="cls-1" d="M14.65,4.7v-1.03c0-2.02-1.64-3.66-3.66-3.66h-5.99C2.97,0,1.33,1.64,1.33,3.66v1.03c-.76.15-1.33.83-1.33,1.63v3.33c0,1.13.52,2.15,1.33,2.82v1.17c0,.55.45,1,1,1s1-.45,1-1v-.35c.11,0,.22.02.33.02h8.66c.11,0,.22,0,.33-.02v.35c0,.55.45,1,1,1s1-.45,1-1v-1.17c.81-.67,1.33-1.69,1.33-2.82v-3.33c0-.8-.57-1.48-1.33-1.63h0ZM3.33,3.66c0-.92.75-1.66,1.66-1.66h5.99c.92,0,1.66.75,1.66,1.66v4.33H3.33V3.66h0ZM12.32,11.32H3.66c-.82,0-1.5-.6-1.64-1.38.09.03.21.05.31.05h11.32c.1,0,.22-.02.31-.05-.14.78-.82,1.38-1.64,1.38h0Z"/>
  </g>
</svg>