<?xml version="1.0" encoding="UTF-8"?>
<svg id="Warstwa_2" data-name="Warstwa 2" xmlns="http://www.w3.org/2000/svg" viewBox="0 0 20.1 18.43">
  <defs>
    <style>
      .cls-1 {
        fill: #f7f7f7;
        fill-rule: evenodd;
      }
    </style>
  </defs>
  <g id="Warstwa_1-2" data-name="Warstwa 1">
    <path class="cls-1" d="M16.64,2.08c-.75-1.29-2.13-2.08-3.62-2.08h-5.94c-1.49,0-2.88.8-3.62,2.08L.57,7.06c-.38.65-.57,1.42-.57,2.15.02.7.21,1.46.58,2.08l2.98,5.07c.75,1.27,2.13,2.06,3.61,2.06h5.76c1.48,0,2.86-.79,3.61-2.06l2.98-5.07c.36-.62.56-1.38.58-2.08,0-.73-.19-1.5-.57-2.15l-2.89-4.98h0ZM7.08,1.68h5.94c.09,0,.17,0,.25.01l-.93,1.66h-4.59l-.93-1.66c.08,0,.17-.01.25-.01h0ZM11.46,8.38l1.4-2.51,1.46,2.51h-2.86ZM14.28,10.05l-1.43,2.43-1.36-2.43h2.78ZM10.05,10.9l1.4,2.51h-2.8l1.4-2.51h0ZM8.69,5.03h2.72l-1.36,2.43-1.36-2.43h0ZM5.8,8.38l1.45-2.5,1.4,2.5h-2.85ZM8.6,10.05l-1.35,2.42-1.42-2.42h2.77ZM2.01,7.91l2.89-4.98c.11-.19.25-.37.4-.52l.99,1.77-2.44,4.2H1.8c.05-.16.12-.32.21-.47h0ZM5.32,15.93c-.12-.13-.22-.27-.31-.42l-2.98-5.07c-.07-.13-.14-.26-.19-.39h2.05l2.42,4.11-.99,1.77h0ZM12.93,16.75h-5.76c-.13,0-.25,0-.38-.03l.92-1.65h4.67l.92,1.65c-.12.02-.25.03-.38.03h0ZM18.08,10.44l-2.98,5.07c-.09.15-.19.29-.31.42l-.98-1.76,2.42-4.12h2.04c-.05.13-.11.26-.19.39h0ZM16.25,8.38l-2.44-4.21.98-1.76c.15.15.29.33.4.52l2.89,4.98c.09.15.16.31.21.47h-2.05Z"/>
  </g>
</svg>