<?xml version="1.0" encoding="UTF-8"?>
<svg id="Warstwa_2" data-name="Warstwa 2" xmlns="http://www.w3.org/2000/svg" viewBox="0 0 16.53 16.53">
  <defs>
    <style>
      .cls-1 {
        fill: #f7f7f7;
        fill-rule: evenodd;
      }
    </style>
  </defs>
  <g id="Warstwa_1-2" data-name="Warstwa 1">
    <path class="cls-1" d="M15.5,14.47h-1.03V3.79c0-2.09-1.7-3.79-3.79-3.79h-4.82c-2.09,0-3.79,1.7-3.79,3.79v10.68h-1.03c-.57,0-1.03.46-1.03,1.03s.46,1.03,1.03,1.03h14.47c.57,0,1.03-.46,1.03-1.03s-.46-1.03-1.03-1.03h0ZM4.13,3.79c0-.95.77-1.72,1.72-1.72h4.82c.95,0,1.72.77,1.72,1.72v10.68H4.13V3.79h0ZM11.02,8.61c0,.57-.46,1.03-1.03,1.03s-1.03-.46-1.03-1.03.46-1.03,1.03-1.03,1.03.46,1.03,1.03h0Z"/>
  </g>
</svg>