<?xml version="1.0" encoding="UTF-8" standalone="no"?>
<svg
   id="Warstwa_2"
   viewBox="0 0 26.85 26.85"
   version="1.1"
   sodipodi:docname="200-2_1.svg"
   inkscape:version="1.2.2 (732a01da63, 2022-12-09)"
   xmlns:inkscape="http://www.inkscape.org/namespaces/inkscape"
   xmlns:sodipodi="http://sodipodi.sourceforge.net/DTD/sodipodi-0.dtd"
   xmlns="http://www.w3.org/2000/svg"
   xmlns:svg="http://www.w3.org/2000/svg">
  <sodipodi:namedview
     id="namedview406"
     pagecolor="#ffffff"
     bordercolor="#000000"
     borderopacity="0.25"
     inkscape:showpageshadow="2"
     inkscape:pageopacity="0.0"
     inkscape:pagecheckerboard="0"
     inkscape:deskcolor="#d1d1d1"
     showgrid="false"
     inkscape:zoom="38.249534"
     inkscape:cx="13.411928"
     inkscape:cy="13.411928"
     inkscape:window-width="3840"
     inkscape:window-height="2054"
     inkscape:window-x="-11"
     inkscape:window-y="-11"
     inkscape:window-maximized="1"
     inkscape:current-layer="g402" />
  <defs
     id="defs394">
    <style
       id="style392">.cls-1{fill:#525e7d;}.cls-1,.cls-2{fill-rule:evenodd;}.cls-2{fill:#fff;}</style>
  </defs>
  <g
     id="g402">
    <path
       class="cls-2"
       d="m 15.68,10.51 c -0.03,-0.13 0,-0.44 0,-0.59 0,-0.27 0.03,-1.28 -0.03,-1.48 -0.12,-0.41 -0.54,-0.6 -0.93,-0.47 -0.58,0.2 -0.48,0.78 -0.48,1.3 v 2.88 c 0,0.33 0.02,0.42 0.26,0.67 0.23,0.24 0.78,0.17 1.14,0.17 h 2.86 c 0.42,0 0.77,-0.25 0.79,-0.71 0.01,-0.42 -0.31,-0.74 -0.79,-0.74 -0.21,0 -0.39,0 -0.6,0 h -1.19 c 0,0 3.67,-3.68 3.67,-3.68 0.25,-0.25 0.39,-0.34 0.44,-0.6 C 20.87,7.03 20.8,6.81 20.66,6.65 L 20.58,6.57 C 20.42,6.43 20.21,6.36 19.98,6.4 19.7,6.45 19.62,6.58 19.36,6.84 l -3.67,3.67 v 0 z"
       id="path398" />
    <path
       class="cls-2"
       d="m 11.74,16.42 c 0.02,0.13 0,0.44 0,0.59 0,0.27 -0.03,1.28 0.03,1.48 0.12,0.41 0.54,0.6 0.93,0.47 0.58,-0.2 0.48,-0.78 0.48,-1.3 v -2.88 c 0,-0.33 -0.02,-0.42 -0.26,-0.67 -0.24,-0.24 -0.78,-0.17 -1.14,-0.17 H 8.92 c -0.42,0 -0.77,0.25 -0.79,0.71 -0.01,0.42 0.31,0.74 0.79,0.74 0.21,0 0.39,0 0.6,0 h 1.19 c 0,0 -3.67,3.68 -3.67,3.68 -0.25,0.25 -0.39,0.34 -0.44,0.6 -0.05,0.23 0.02,0.45 0.16,0.61 l 0.08,0.08 C 7,20.5 7.21,20.57 7.44,20.53 7.72,20.48 7.8,20.35 8.06,20.09 l 3.67,-3.67 v 0 z"
       id="path400" />
  </g>
</svg>
