<?xml version="1.0" encoding="UTF-8"?><svg id="Warstwa_2" xmlns="http://www.w3.org/2000/svg" viewBox="0 0 21.1 10.51"><defs><style>.cls-1,.cls-2{fill:#525e7d;}.cls-2{fill-rule:evenodd;}</style></defs><g id="Warstwa_1-2"><g><polygon class="cls-2" points="0 5.05 5.46 5.05 5.46 10.51 0 10.51 0 5.05 0 5.05"/><polygon class="cls-2" points="15.64 5.05 21.1 5.05 21.1 10.51 15.64 10.51 15.64 5.05 15.64 5.05"/><polygon class="cls-1" points="7.68 0 13.51 0 13.51 1.42 7.68 1.42 7.68 0 7.68 0"/><path class="cls-1" d="m14.35.37c.76.39,1.45.9,2.05,1.5,1.48,1.48,2.4,3.54,2.4,5.8v.11h-1.42v-.11c0-1.87-.76-3.57-1.99-4.8-.32-.32-.67-.61-1.05-.86V.37h0Zm-7.55,1.68c-.36.24-.69.52-1,.82-1.23,1.23-1.99,2.93-1.99,4.8v.11s-1.42,0-1.42,0v-.11c0-2.27.92-4.32,2.4-5.8.59-.59,1.26-1.08,2-1.47v1.65h0Z"/></g></g></svg>