<?xml version="1.0" encoding="UTF-8"?><svg id="Warstwa_2" xmlns="http://www.w3.org/2000/svg" viewBox="0 0 14.94 17.54"><defs><style>.cls-1{fill:#525e7d;fill-rule:evenodd;}</style></defs><g id="Warstwa_1-2"><path class="cls-1" d="m1.23,9.7c0-.94,1.11-1.15,1.55-.55.67.9,1.74,2.69,2.42,3.61l.29.43c.06.09.03.09.16.13V2.94c0-.47-.12-1.35.15-1.58.28-.24.93-.23.93.53v5.91h1.21v-2.37c0-.86,1.13-.98,1.13.12v2.25h1.21c0-.56-.1-1.51.15-1.78.37-.41.94-.06.94.29v1.49h1.25c0-.38-.03-.8.6-.8.29,0,.48.26.48.56v5.51c0,.54-.14,1.01-.32,1.37-.21.43-.39.64-.71.97-.28.28-.63.5-1.03.66-.41.17-.87.25-1.44.25h-3.1c-.98,0-1.75-.36-2.24-.85-.52-.52-2.09-3.14-2.49-3.78l-.91-1.42c-.1-.15-.22-.35-.22-.58h0Zm3.18-.36c-.1-.08-.32-.44-.42-.59-.43-.64-.93-1.18-1.91-1.18-1.26,0-2.48,1.29-1.95,2.83.11.31,1.11,1.83,1.38,2.24l.88,1.41c.07.11.12.18.19.29l.87,1.38c.07.1.13.17.21.28.12.15.31.33.46.47.15.14.33.27.5.38.54.36,1.38.69,2.08.69h3.9c.68,0,1.33-.22,1.8-.46.28-.14.47-.26.7-.43.25-.19.37-.31.59-.53.72-.71,1.26-1.86,1.26-3.29v-5.11c0-.59-.17-1.07-.47-1.38-.49-.51-1.31-.77-1.94-.47-.15-.31-.24-.6-.56-.85-.49-.37-.69-.4-1.29-.4-.24,0-.3.08-.52.08-.13-.56-.84-1.17-1.53-1.17-.42,0-.28-.01-.68.08,0-.64.08-2.03-.13-2.53C7.37,0,6.03-.34,5.07.38c-.92.69-.66,2.17-.66,3.44v5.51h0Z"/></g></svg>