<?xml version="1.0" encoding="UTF-8"?>
<svg id="Warstwa_2" data-name="Warstwa 2" xmlns="http://www.w3.org/2000/svg" viewBox="0 0 11.15 19.08">
  <defs>
    <style>
      .cls-1 {
        fill: #f7f7f7;
        fill-rule: evenodd;
      }
    </style>
  </defs>
  <g id="Warstwa_1-2" data-name="Warstwa 1">
    <path class="cls-1" d="M11.15,13.5h0c0,3.08-2.5,5.58-5.57,5.58S0,16.58,0,13.5c0-1.46.57-2.86,1.59-3.9V3.94c.17-5.26,7.79-5.25,7.96,0v5.66c1.02,1.04,1.59,2.44,1.59,3.89h0ZM6.41,10.76c1.14.36,1.97,1.43,1.97,2.69,0,1.56-1.26,2.82-2.82,2.82s-2.82-1.26-2.82-2.82c0-1.26.83-2.33,1.97-2.69v-3.85c0-.47.38-.85.85-.85s.85.38.85.85v3.85h0Z"/>
  </g>
</svg>