<?xml version="1.0" encoding="UTF-8"?><svg id="Warstwa_2" xmlns="http://www.w3.org/2000/svg" viewBox="0 0 21.9 13.17"><defs><style>.cls-1{fill:#525e7d;fill-rule:evenodd;}</style></defs><g id="Warstwa_1-2"><g><path class="cls-1" d="m19.25,1.33h1.33v8.6h-1.33V1.33h0ZM2.82,11.25c-.2-.1-.51-.17-.73-.26-.95-.38-.77-.37-.77-1.28v-5.13c.8.42,1.81.68,2.85.87.73.14,1.79.26,2.54.28.21,0,.21.04.43.05,2.41.07,6.03-.13,8.04-1.2v5.09c0,.89.2.94-.74,1.31-.24.1-.55.17-.76.27v-1.97h-1.33v2.14c0,.18-.52.18-.85.22-.15.02-.91.08-.99.12v-3.13c0-.44.14-.34-1.33-.34v3.51l-1.16.04c-.31,0-.43-.04-.73-.04v-2.52h-1.33v2.48l-1.45-.18c-.16-.02-.39,0-.39-.16v-3.12h-1.33v2.95h0ZM1.33,2.87c.26-.38.91-.6,1.33-.77.7-.28,1.79-.45,2.6-.57.79-.12,2.22-.2,3.01-.2l2.01.09c1.07.05,3.47.49,4.32.99.2.12.47.28.6.47-.16.59-2.11,1.1-2.83,1.23-2.78.51-7.18.54-9.78-.42-.44-.16-1.02-.38-1.25-.81h0Zm14.12-1.54h2.44v8.6h-1.37V2.82c0-.9-.95-1.34-1.07-1.5h0ZM0,2.82v7.87c0,.93,1.47,1.55,2.22,1.75,1.24.34,2.1.5,3.46.6,2.67.21,4.57.17,7.18-.27.65-.11,1.42-.3,1.99-.53.34-.13.55-.23.83-.41.51-.33.55-.59.69-.59h5.52V0h-13.69c-1.82,0-3.47.2-4.98.54C2.08.8,0,1.53,0,2.82h0Z"/><path class="cls-1" d="m6.63,2.87c0,.3.26.64.64.64h1.97c.85,0,.87-1.33-.04-1.33h-1.88c-.38,0-.68.3-.68.68h0Z"/></g></g></svg>