<?xml version="1.0" encoding="UTF-8"?>
<svg id="Warstwa_2" data-name="Warstwa 2" xmlns="http://www.w3.org/2000/svg" viewBox="0 0 16.85 16.85">
  <defs>
    <style>
      .cls-1 {
        fill: #f7f7f7;
        fill-rule: evenodd;
      }
    </style>
  </defs>
  <g id="Warstwa_1-2" data-name="Warstwa 1">
    <path class="cls-1" d="M15.44,12.18v-7.51c.83-.4,1.4-1.23,1.4-2.21,0-1.35-1.1-2.46-2.46-2.46-.98,0-1.81.58-2.21,1.4h-7.51c-.4-.83-1.23-1.4-2.21-1.4C1.1,0,0,1.1,0,2.46c0,.98.58,1.81,1.4,2.21v7.51c-.83.4-1.4,1.23-1.4,2.21,0,1.35,1.1,2.46,2.46,2.46.98,0,1.81-.58,2.21-1.4h7.51c.4.83,1.23,1.4,2.21,1.4,1.35,0,2.46-1.1,2.46-2.46,0-.98-.58-1.81-1.4-2.21h0ZM14.39,1.4c.58,0,1.05.47,1.05,1.05s-.47,1.05-1.05,1.05-1.05-.47-1.05-1.05.47-1.05,1.05-1.05h0ZM2.46,1.4c.58,0,1.05.47,1.05,1.05s-.47,1.05-1.05,1.05-1.05-.47-1.05-1.05.47-1.05,1.05-1.05h0ZM2.46,15.44c-.58,0-1.05-.47-1.05-1.05s.47-1.05,1.05-1.05,1.05.47,1.05,1.05-.47,1.05-1.05,1.05h0ZM11.97,14.04h-7.09c-.16-1.07-1-1.91-2.07-2.07v-7.09c1.07-.16,1.91-1,2.07-2.07h7.09c.16,1.07,1,1.91,2.07,2.07v7.09c-1.07.16-1.91,1-2.07,2.07h0ZM14.39,15.44c-.58,0-1.05-.47-1.05-1.05s.47-1.05,1.05-1.05,1.05.47,1.05,1.05-.47,1.05-1.05,1.05h0Z"/>
  </g>
</svg>