<?xml version="1.0" encoding="UTF-8"?>
<svg id="Warstwa_2" data-name="Warstwa 2" xmlns="http://www.w3.org/2000/svg" viewBox="0 0 17.2 15.43">
  <defs>
    <style>
      .cls-1 {
        fill: #f7f7f7;
        fill-rule: evenodd;
      }
    </style>
  </defs>
  <g id="Warstwa_1-2" data-name="Warstwa 1">
    <path class="cls-1" d="M0,8.29c0,1.14.03,1.86.39,2.94.23.7.45,1.21.82,1.84.16.27.34.53.53.78.19.25.4.5.62.73.62.62,1.12.85,2.05.85.88,0,1.73-.75,2.35-1.32.12-.11.2-.18.28-.33.53-1.02-.68-1.99-1.53-1.43l-.95.77c-.41.34-.68-.06-.98-.45-.75-.95-1.25-2.03-1.39-3.26-.13-1.16,0-2.3.47-3.37.43-.96,1.08-1.82,1.88-2.46,1-.8,2.41-1.41,3.74-1.41s2.01.08,3.15.65c.61.3,1.24.72,1.71,1.22.43.47.78.84,1.09,1.44.48.95.82,1.84.82,3.12,0,1.44-.5,2.81-1.27,3.84l-.38.46c-.51.63-.59.39-1.33-.21-.43-.35-.52-.49-1.12-.49-.85,0-1.36,1.3-.59,1.91.24.19.45.37.69.56.71.56,1.03.77,1.99.77,1.36,0,2.39-1.43,3-2.49,1.09-1.89,1.45-4.1.95-6.25-.16-.68-.39-1.36-.69-1.94-.46-.92-1.33-2.1-2.11-2.71-.11-.09-.18-.15-.3-.24-.12-.09-.19-.15-.31-.23C11.53.16,9.04-.35,6.6.24c-.3.07-.89.25-1.18.37l-1.07.52c-.56.3-1.34.89-1.79,1.34-.09.09-.18.16-.25.26-.1.12-.16.17-.25.28C.9,4.41,0,6.36,0,8.29h0ZM10.04,9.51h0c0,.79-.64,1.44-1.44,1.44s-1.44-.64-1.44-1.44c0-.35.13-.69.36-.95v-3c0-.6.48-1.08,1.08-1.08s1.08.48,1.08,1.08v3c.23.26.36.6.36.95h0Z"/>
  </g>
</svg>