<?xml version="1.0" encoding="UTF-8"?>
<svg id="Warstwa_2" data-name="Warstwa 2" xmlns="http://www.w3.org/2000/svg" viewBox="0 0 16.29 16.29">
  <defs>
    <style>
      .cls-1 {
        fill: #f7f7f7;
        fill-rule: evenodd;
      }
    </style>
  </defs>
  <g id="Warstwa_1-2" data-name="Warstwa 1">
    <path class="cls-1" d="M13.57,6.79v4.75c0,.75-.61,1.36-1.36,1.36h-4.75c-.75,0-1.36-.61-1.36-1.36v-5.43c0-.37.3-.68.68-.68s.68.3.68.68v5.43h2.04v-2.04c0-.37.3-.68.68-.68s.68.3.68.68v2.04h1.36v-4.75h-2.71c-.38,0-.68-.3-.68-.68s.3-.68.68-.68h2.71c.75,0,1.36.61,1.36,1.36h0ZM16.29,6.11v6.79c0,1.87-1.52,3.39-3.39,3.39H2.47c-1.37,0-2.47-1.11-2.47-2.47V2.38C0,1.06,1.06,0,2.38,0h.34c1.12,0,2.04.91,2.04,2.04v.68h8.14c1.87,0,3.39,1.52,3.39,3.39h0ZM1.36,11.77c.31-.15.66-.23,1.02-.23h.34c.37,0,.68-.3.68-.68V2.04c0-.37-.3-.68-.68-.68h-.34c-.56,0-1.02.46-1.02,1.02v9.39h0ZM14.93,6.11c0-1.12-.91-2.04-2.04-2.04H4.75v6.79c0,1.12-.91,2.04-2.04,2.04h-.34c-.56,0-1.02.46-1.02,1.02s.46,1.02,1.02,1.02h10.52c1.12,0,2.04-.91,2.04-2.04v-6.79h0Z"/>
  </g>
</svg>