<?xml version="1.0" encoding="UTF-8"?>
<svg id="Warstwa_2" data-name="Warstwa 2" xmlns="http://www.w3.org/2000/svg" viewBox="0 0 19.68 19.68">
  <defs>
    <style>
      .cls-1 {
        fill: #f7f7f7;
        fill-rule: evenodd;
      }
    </style>
  </defs>
  <g id="Warstwa_1-2" data-name="Warstwa 1">
    <g>
      <path class="cls-1" d="M13.17,6.51c-.48-.48-1.26-.48-1.74,0,0,0,0,0,0,0l-1.59,1.59-1.59-1.59c-.48-.48-1.26-.48-1.74,0-.48.48-.48,1.26,0,1.74l1.59,1.59-1.59,1.59c-.48.48-.48,1.26,0,1.74.48.48,1.26.48,1.74,0h0l1.59-1.59,1.59,1.59c.48.48,1.26.48,1.74,0,.48-.48.48-1.26,0-1.74l-1.59-1.59,1.59-1.59c.48-.48.48-1.26,0-1.74,0,0,0,0,0,0h0Z"/>
      <path class="cls-1" d="M9.84,0C4.41,0,0,4.41,0,9.84s4.41,9.84,9.84,9.84,9.84-4.41,9.84-9.84C19.67,4.41,15.27,0,9.84,0h0ZM9.84,17.22c-4.08,0-7.38-3.3-7.38-7.38s3.3-7.38,7.38-7.38,7.38,3.3,7.38,7.38c0,4.07-3.31,7.37-7.38,7.38h0Z"/>
    </g>
  </g>
</svg>